<?xml version="1.0" standalone="no"?>
<!DOCTYPE svg PUBLIC "-//W3C//DTD SVG 20010904//EN"
 "http://www.w3.org/TR/2001/REC-SVG-20010904/DTD/svg10.dtd">
<svg version="1.0" xmlns="http://www.w3.org/2000/svg"
 width="200.000000pt" height="52.000000pt" viewBox="0 0 200.000000 52.000000"
 preserveAspectRatio="xMidYMid meet">
<metadata>
Created by potrace 1.10, written by Peter Selinger 2001-2011
</metadata>
<g transform="translate(0.000000,52.000000) scale(0.100000,-0.100000)"
fill="#000000" stroke="none">
<path d="M110 382 c-47 -47 -62 -133 -36 -197 23 -55 82 -72 127 -37 35 29 19
56 -28 47 -25 -4 -38 -2 -44 7 -21 32 0 138 26 138 8 0 12 -8 10 -18 -5 -26 9
-45 31 -40 14 2 20 13 22 41 7 81 -53 113 -108 59z m78 -14 c7 -7 12 -23 11
-37 0 -25 -1 -25 -9 -5 -5 12 -13 25 -19 29 -18 10 -47 -4 -59 -28 -6 -12 -11
-16 -11 -8 -1 20 39 61 59 61 9 0 21 -5 28 -12z m-63 -198 l20 -25 -22 19
c-13 11 -23 24 -23 29 0 6 1 8 3 6 1 -2 11 -15 22 -29z"/>
<path d="M457 399 c-27 -16 -47 -71 -47 -128 0 -85 29 -131 81 -131 63 0 100
84 79 178 -18 81 -61 111 -113 81z m75 -36 c13 -11 18 -29 17 -62 -1 -44 -1
-44 -9 -14 -25 106 -97 70 -91 -44 1 -30 36 -64 56 -57 9 4 22 21 30 38 9 20
14 25 14 13 2 -46 -44 -86 -78 -67 -42 22 -51 133 -15 188 17 26 50 29 76 5z
m-22 -54 c14 -26 3 -99 -15 -99 -16 0 -25 22 -25 60 0 58 20 77 40 39z"/>
<path d="M624 399 c-57 -16 -73 -69 -22 -69 22 0 23 -4 25 -86 1 -88 10 -111
37 -101 13 5 16 24 16 95 0 85 1 89 28 109 l27 20 0 -106 c0 -95 2 -106 19
-109 22 -5 36 13 36 46 0 15 6 22 20 22 16 0 20 -6 18 -26 -4 -33 25 -55 44
-36 9 9 13 47 13 125 0 101 -2 112 -19 115 -26 5 -36 -14 -36 -70 0 -39 -3
-48 -18 -48 -14 0 -17 7 -14 44 6 70 -6 82 -80 83 -35 1 -77 -3 -94 -8z m62
-40 c-14 -11 -26 -27 -26 -34 0 -10 -7 -7 -23 8 -21 19 -22 24 -8 35 8 6 30
12 49 12 l35 0 -27 -21z m84 11 c0 -5 -4 -10 -10 -10 -5 0 -10 5 -10 10 0 6 5
10 10 10 6 0 10 -4 10 -10z m94 -140 c-5 -42 -9 -49 -13 -31 -13 48 -62 54
-81 9 -6 -16 -8 2 -8 62 1 47 3 69 5 49 2 -20 13 -45 24 -55 18 -17 20 -16 44
6 18 17 26 35 27 64 l1 41 5 -45 c2 -25 0 -70 -4 -100z"/>
<path d="M1072 398 c-27 -33 -41 -172 -22 -222 21 -57 68 -6 55 61 -3 18 -2
33 3 33 6 0 13 -15 16 -34 8 -43 42 -86 66 -86 28 0 41 32 47 114 6 80 -9 146
-33 146 -17 0 -32 -34 -29 -70 1 -14 3 -35 3 -48 3 -42 22 -12 23 36 0 35 3
42 9 27 4 -11 7 -47 5 -80 -6 -108 -25 -123 -65 -47 -32 59 -50 60 -67 2 -12
-44 -12 -43 -10 43 5 125 24 136 62 34 23 -61 36 -69 23 -14 -20 90 -58 138
-86 105z"/>
<path d="M1319 397 c-77 -58 -79 -234 -3 -253 37 -10 72 11 92 53 9 21 23 42
30 46 17 11 15 34 -4 41 -28 11 -70 6 -90 -9 -19 -15 -19 -15 0 -30 15 -11 17
-18 9 -26 -7 -7 -19 -9 -27 -6 -20 8 -21 56 -2 102 18 42 46 47 46 9 0 -21 4
-25 23 -22 29 4 37 61 11 89 -19 22 -61 24 -85 6z m71 -27 c8 -5 12 -11 9 -14
-3 -3 -14 1 -25 9 -21 16 -8 20 16 5z m-70 -25 c-7 -9 -15 -13 -18 -10 -3 2 1
11 8 20 7 9 15 13 18 10 3 -2 -1 -11 -8 -20z m93 -82 c4 -3 1 -13 -5 -21 -7
-8 -17 -23 -23 -34 -5 -12 -20 -27 -32 -35 -19 -13 -24 -12 -42 6 -12 12 -21
26 -21 31 0 6 9 1 21 -11 18 -18 23 -19 42 -6 12 8 23 25 24 38 0 13 1 27 2
32 1 9 25 9 34 0z"/>
<path d="M1587 399 c-20 -12 -52 -72 -60 -115 -14 -71 31 -154 83 -154 34 0
70 26 70 51 0 19 -4 20 -39 14 -34 -6 -41 -3 -51 15 -12 23 -5 96 12 118 16
19 28 14 28 -13 0 -33 28 -45 47 -19 16 22 9 70 -15 97 -17 19 -48 22 -75 6z
m61 -31 c7 -7 12 -23 11 -37 0 -26 0 -26 -9 -3 -14 34 -40 39 -62 13 -13 -17
-18 -19 -18 -8 0 16 36 47 55 47 6 0 16 -5 23 -12z m-52 -205 c-7 -7 -26 7
-26 19 0 6 6 6 15 -2 9 -7 13 -15 11 -17z"/>
<path d="M1743 395 c-60 -42 -59 -225 2 -249 35 -13 64 -5 89 25 26 31 30 48
27 128 -4 93 -59 138 -118 96z m76 -29 c7 -8 14 -31 17 -53 l6 -38 -19 35
c-34 66 -83 43 -83 -40 0 -33 6 -55 20 -71 l20 -24 24 28 c32 35 40 34 22 -2
-20 -37 -43 -45 -72 -26 -22 14 -24 23 -24 92 0 57 4 81 17 95 19 21 56 24 72
4z m-18 -69 c9 -35 -3 -82 -22 -82 -9 0 -15 13 -17 34 -7 72 23 109 39 48z"/>
<path d="M257 393 c-18 -30 -26 -190 -12 -234 6 -19 13 -21 49 -17 59 7 101
29 101 53 0 17 -6 20 -47 18 l-48 -1 0 78 c0 43 -3 85 -6 94 -6 17 -29 22 -37
9z m35 -201 c7 -8 21 -11 37 -8 18 4 21 3 11 -3 -8 -4 -27 -11 -42 -15 l-28
-6 2 92 c2 86 2 88 5 23 2 -38 9 -75 15 -83z"/>
<path d="M922 384 c-18 -13 -21 -19 -11 -30 6 -8 17 -14 23 -14 7 0 10 -23 8
-72 -3 -57 -8 -75 -23 -86 -10 -7 -19 -20 -19 -29 0 -13 9 -15 50 -11 27 3 56
11 64 17 16 14 11 41 -8 41 -8 0 -10 21 -8 72 4 58 9 75 26 90 18 15 19 19 6
28 -23 15 -83 12 -108 -6z m61 -61 c-6 -66 -11 -76 -12 -26 -1 23 -5 45 -11
48 -16 10 -11 25 9 25 16 0 18 -6 14 -47z m-15 -156 c-28 -10 -30 -6 -15 26
l12 26 12 -22 c10 -19 9 -23 -9 -30z"/>
<path d="M1882 173 c4 -21 36 -29 51 -14 9 9 8 14 -3 21 -25 16 -52 12 -48 -7z"/>
</g>
</svg>
