<svg id="svg" version="1.1" xmlns="http://www.w3.org/2000/svg" xmlns:xlink="http://www.w3.org/1999/xlink" width="400" height="400" viewBox="0, 0, 400,400"><g id="svgg"><path id="path0" d="M185.600 56.657 C 168.783 57.709,156.263 59.161,148.200 60.994 C 146.660 61.344,144.680 61.791,143.800 61.986 C 120.849 67.084,103.476 78.284,94.859 93.536 C 93.946 95.151,93.199 96.591,93.198 96.736 C 93.196 96.881,92.964 97.450,92.682 98.000 C 87.224 108.639,86.278 128.883,90.392 147.000 C 90.592 147.880,91.054 149.950,91.418 151.600 C 92.158 154.954,93.135 158.589,93.621 159.800 C 93.798 160.240,94.307 161.680,94.753 163.000 C 97.806 172.049,102.569 182.288,110.010 195.800 C 110.737 197.120,111.902 199.280,112.600 200.600 C 113.297 201.920,114.737 204.530,115.800 206.400 C 118.041 210.345,124.963 223.979,126.360 227.200 C 126.884 228.410,127.623 230.120,128.002 231.000 C 128.380 231.880,129.178 233.950,129.774 235.600 C 130.369 237.250,131.006 238.974,131.189 239.432 C 131.547 240.329,132.855 245.673,133.564 249.131 C 135.766 259.884,132.032 271.154,123.477 279.571 C 109.777 293.050,97.065 295.459,77.200 288.339 C 71.654 286.351,71.028 286.100,67.963 284.636 C 63.739 282.618,63.830 282.973,69.514 290.645 C 80.918 306.040,93.641 314.991,110.200 319.269 C 114.612 320.409,129.470 320.646,133.800 319.646 C 138.993 318.446,144.513 316.896,146.600 316.052 C 147.260 315.785,148.610 315.270,149.600 314.908 C 151.548 314.195,159.673 310.092,160.000 309.656 C 160.110 309.509,161.195 308.714,162.410 307.890 C 165.910 305.516,172.733 298.741,175.190 295.200 C 175.724 294.430,176.267 293.710,176.395 293.600 C 178.718 291.612,184.028 280.007,186.095 272.400 C 187.076 268.791,187.356 256.179,186.517 253.400 C 186.251 252.520,185.646 250.450,185.173 248.800 C 184.229 245.511,182.540 240.260,182.020 239.000 C 181.839 238.560,180.387 234.690,178.795 230.400 C 174.916 219.952,171.769 211.765,170.546 208.940 C 170.246 208.246,170.000 207.427,170.000 207.120 C 170.000 206.812,169.842 206.389,169.649 206.180 C 169.456 205.971,168.925 204.720,168.468 203.400 C 168.011 202.080,167.261 200.010,166.801 198.800 C 163.678 190.580,158.606 175.713,156.840 169.600 C 156.108 167.070,155.356 164.550,155.168 164.000 C 154.677 162.562,152.638 154.354,151.841 150.600 C 151.467 148.840,151.003 146.770,150.809 146.000 C 150.615 145.230,150.337 143.520,150.192 142.200 C 150.047 140.880,149.774 139.170,149.585 138.400 C 149.397 137.630,149.058 133.940,148.833 130.200 C 148.114 118.260,149.400 108.710,152.628 102.018 C 153.163 100.910,153.600 99.903,153.600 99.780 C 153.600 99.657,154.308 98.514,155.173 97.240 C 162.758 86.071,174.995 80.736,194.400 80.140 C 230.210 79.040,247.309 94.220,246.279 126.200 C 246.017 134.326,245.379 139.383,243.249 150.200 C 242.846 152.243,240.633 160.865,238.834 167.400 C 237.926 170.698,233.273 184.738,230.881 191.400 C 229.245 195.954,219.089 222.880,218.208 225.000 C 214.121 234.828,209.389 248.876,208.197 254.726 C 203.783 276.373,223.110 307.984,244.800 314.593 C 245.350 314.761,245.980 315.035,246.200 315.204 C 246.859 315.707,253.710 317.881,256.861 318.586 C 258.477 318.948,260.430 319.426,261.200 319.648 C 263.302 320.256,276.529 320.544,280.000 320.058 C 295.441 317.896,308.449 310.355,320.809 296.398 C 326.386 290.100,332.832 280.431,329.380 283.542 C 328.360 284.461,317.470 288.597,312.000 290.142 C 295.436 294.822,284.021 291.887,271.767 279.800 C 260.164 268.354,258.166 256.725,264.483 237.400 C 266.271 231.929,273.469 216.602,278.120 208.360 C 279.244 206.368,280.028 204.931,283.004 199.400 C 284.070 197.420,285.327 195.170,285.798 194.400 C 288.126 190.595,295.680 174.875,298.003 169.000 C 298.700 167.240,299.415 165.440,299.592 165.000 C 300.140 163.644,301.092 160.715,301.803 158.200 C 302.177 156.880,302.632 155.350,302.816 154.800 C 303.173 153.727,303.763 151.083,304.646 146.600 C 310.896 114.840,305.233 92.775,287.090 78.197 C 276.699 69.847,264.437 64.780,244.000 60.388 C 231.979 57.806,199.955 55.759,185.600 56.657 " stroke="none" fill="#fbfbfb" fill-rule="evenodd"></path><path id="path1" d="M189.200 5.537 C 189.200 5.723,185.831 5.996,181.712 6.145 C 177.594 6.293,174.048 6.592,173.832 6.808 C 173.617 7.023,172.486 7.200,171.320 7.200 C 170.154 7.200,169.200 7.354,169.200 7.543 C 169.200 7.731,167.540 8.011,165.511 8.164 C 163.481 8.317,161.726 8.591,161.611 8.773 C 161.495 8.955,160.094 9.234,158.498 9.393 C 156.903 9.552,155.508 9.825,155.399 10.001 C 155.290 10.177,154.121 10.447,152.801 10.600 C 151.480 10.753,150.400 11.016,150.400 11.185 C 150.400 11.353,149.553 11.607,148.519 11.749 C 146.640 12.007,144.347 12.630,143.185 13.200 C 142.846 13.365,141.811 13.629,140.885 13.786 C 139.958 13.942,139.200 14.218,139.200 14.398 C 139.200 14.578,138.300 14.849,137.200 15.000 C 136.100 15.151,135.200 15.418,135.200 15.593 C 135.200 15.768,134.548 16.033,133.751 16.183 C 132.954 16.332,132.009 16.607,131.651 16.794 C 130.319 17.487,128.066 18.400,127.685 18.400 C 127.469 18.400,126.776 18.669,126.146 18.998 C 125.516 19.326,124.685 19.596,124.300 19.598 C 123.915 19.599,123.600 19.772,123.600 19.982 C 123.600 20.192,122.970 20.482,122.200 20.626 C 121.430 20.771,120.800 21.049,120.800 21.245 C 120.800 21.440,120.474 21.600,120.076 21.600 C 119.679 21.600,119.004 21.864,118.576 22.187 C 118.149 22.510,117.485 22.780,117.100 22.787 C 116.715 22.794,116.400 22.966,116.400 23.168 C 116.400 23.371,115.860 23.655,115.200 23.800 C 114.540 23.945,114.000 24.215,114.000 24.400 C 114.000 24.585,113.460 24.855,112.800 25.000 C 112.140 25.145,111.600 25.415,111.600 25.600 C 111.600 25.785,111.060 26.055,110.400 26.200 C 109.740 26.345,109.200 26.629,109.200 26.832 C 109.200 27.034,108.930 27.200,108.600 27.200 C 108.270 27.200,108.000 27.360,108.000 27.555 C 108.000 27.751,107.370 28.029,106.600 28.174 C 105.830 28.318,105.200 28.569,105.200 28.730 C 105.200 28.892,104.705 29.235,104.100 29.493 C 102.371 30.229,99.559 31.892,98.531 32.785 C 98.016 33.233,97.320 33.600,96.984 33.600 C 96.649 33.600,96.271 33.870,96.145 34.200 C 96.018 34.530,95.724 34.800,95.492 34.800 C 94.984 34.800,91.056 37.257,90.867 37.693 C 90.793 37.862,90.473 38.000,90.154 38.000 C 89.836 38.000,89.471 38.270,89.345 38.600 C 89.218 38.930,88.877 39.200,88.586 39.200 C 88.295 39.200,87.817 39.425,87.523 39.700 C 87.230 39.975,86.092 40.824,84.995 41.586 C 83.898 42.348,82.797 43.158,82.549 43.386 C 82.301 43.614,81.688 44.070,81.187 44.400 C 80.686 44.730,79.993 45.315,79.649 45.700 C 79.304 46.085,78.883 46.400,78.712 46.400 C 78.541 46.400,77.734 47.030,76.918 47.800 C 76.101 48.570,75.316 49.200,75.173 49.200 C 75.029 49.200,74.212 49.835,73.356 50.611 C 62.667 60.304,60.304 62.667,50.611 73.356 C 49.835 74.212,49.200 75.022,49.200 75.156 C 49.200 75.290,48.481 76.210,47.603 77.200 C 45.657 79.393,45.606 79.456,44.382 81.200 C 43.842 81.970,43.301 82.690,43.179 82.800 C 43.058 82.910,42.338 83.898,41.579 84.995 C 40.821 86.092,39.975 87.230,39.700 87.523 C 39.425 87.817,39.200 88.295,39.200 88.586 C 39.200 88.877,38.930 89.218,38.600 89.345 C 38.270 89.471,38.000 89.768,38.000 90.004 C 38.000 90.240,37.685 90.774,37.300 91.190 C 36.915 91.607,36.150 92.814,35.600 93.874 C 35.050 94.933,34.375 95.944,34.100 96.120 C 33.825 96.296,33.600 96.699,33.600 97.017 C 33.600 97.334,33.233 98.016,32.785 98.531 C 31.892 99.559,30.229 102.371,29.493 104.100 C 29.235 104.705,28.892 105.200,28.730 105.200 C 28.569 105.200,28.318 105.830,28.174 106.600 C 28.029 107.370,27.751 108.000,27.555 108.000 C 27.360 108.000,27.200 108.255,27.200 108.567 C 27.200 108.878,27.065 109.193,26.900 109.267 C 26.519 109.436,24.800 112.937,24.800 113.544 C 24.800 113.795,24.634 114.000,24.432 114.000 C 24.229 114.000,23.945 114.540,23.800 115.200 C 23.655 115.860,23.371 116.400,23.168 116.400 C 22.966 116.400,22.794 116.715,22.787 117.100 C 22.780 117.485,22.510 118.149,22.187 118.576 C 21.864 119.004,21.600 119.679,21.600 120.076 C 21.600 120.474,21.440 120.800,21.245 120.800 C 21.049 120.800,20.771 121.430,20.626 122.200 C 20.482 122.970,20.192 123.600,19.982 123.600 C 19.772 123.600,19.599 123.915,19.598 124.300 C 19.596 124.685,19.326 125.516,18.998 126.146 C 18.669 126.776,18.400 127.469,18.400 127.685 C 18.400 128.066,17.487 130.319,16.794 131.651 C 16.607 132.009,16.332 132.954,16.183 133.751 C 16.033 134.548,15.768 135.200,15.593 135.200 C 15.418 135.200,15.151 136.100,15.000 137.200 C 14.849 138.300,14.578 139.200,14.398 139.200 C 14.218 139.200,13.942 139.958,13.786 140.885 C 13.629 141.811,13.365 142.846,13.200 143.185 C 12.730 144.144,12.076 146.442,11.772 148.200 C 11.620 149.080,11.357 149.980,11.186 150.200 C 11.016 150.420,10.749 151.637,10.592 152.905 C 10.435 154.173,10.166 155.297,9.994 155.404 C 9.822 155.510,9.552 156.903,9.393 158.498 C 9.234 160.094,8.955 161.495,8.773 161.611 C 8.591 161.726,8.317 163.481,8.164 165.511 C 8.011 167.540,7.731 169.200,7.543 169.200 C 7.354 169.200,7.200 170.154,7.200 171.320 C 7.200 172.486,7.025 173.615,6.811 173.829 C 6.597 174.043,6.299 177.505,6.148 181.524 C 5.997 185.543,5.722 188.924,5.537 189.039 C 5.097 189.311,5.097 205.489,5.537 205.761 C 5.722 205.876,5.997 209.236,6.146 213.229 C 6.296 217.221,6.595 220.816,6.810 221.218 C 7.024 221.619,7.200 222.859,7.200 223.974 C 7.200 225.088,7.357 226.000,7.548 226.000 C 7.740 226.000,8.023 227.618,8.178 229.595 C 8.333 231.572,8.611 233.283,8.796 233.397 C 8.981 233.512,9.259 234.954,9.413 236.603 C 9.568 238.251,9.835 239.600,10.008 239.600 C 10.180 239.600,10.451 240.725,10.609 242.100 C 10.767 243.475,11.016 244.690,11.162 244.800 C 11.398 244.977,11.978 247.179,12.664 250.500 C 12.789 251.105,13.030 251.600,13.199 251.600 C 13.369 251.600,13.632 252.590,13.783 253.800 C 13.934 255.010,14.214 256.000,14.404 256.000 C 14.595 256.000,14.872 256.810,15.021 257.800 C 15.169 258.790,15.450 259.600,15.645 259.600 C 15.840 259.600,16.001 260.005,16.002 260.500 C 16.004 260.995,16.274 261.916,16.602 262.546 C 16.931 263.176,17.200 263.941,17.200 264.246 C 17.200 264.551,17.369 264.800,17.575 264.800 C 17.782 264.800,18.072 265.610,18.221 266.600 C 18.369 267.590,18.636 268.400,18.814 268.400 C 18.991 268.400,19.258 268.952,19.406 269.627 C 19.554 270.302,19.927 271.337,20.235 271.927 C 20.543 272.517,20.796 273.225,20.798 273.500 C 20.799 273.775,20.980 274.000,21.200 274.000 C 21.420 274.000,21.600 274.264,21.600 274.586 C 21.600 275.234,22.844 278.082,23.268 278.404 C 23.416 278.516,23.660 279.101,23.812 279.704 C 23.963 280.307,24.247 280.800,24.443 280.800 C 24.640 280.800,24.806 281.025,24.814 281.300 C 24.821 281.575,25.175 282.520,25.600 283.400 C 26.025 284.280,26.379 285.225,26.386 285.500 C 26.394 285.775,26.580 286.000,26.800 286.000 C 27.020 286.000,27.200 286.270,27.200 286.600 C 27.200 286.930,27.360 287.200,27.557 287.200 C 27.753 287.200,28.037 287.693,28.188 288.296 C 28.340 288.899,28.584 289.484,28.732 289.596 C 28.879 289.708,29.450 290.700,30.000 291.800 C 30.550 292.900,31.090 293.890,31.200 294.000 C 31.604 294.404,32.430 295.820,32.658 296.500 C 32.788 296.885,33.033 297.200,33.203 297.200 C 33.374 297.200,33.626 297.650,33.764 298.200 C 33.902 298.750,34.192 299.200,34.408 299.200 C 34.623 299.200,34.800 299.371,34.800 299.580 C 34.800 300.051,37.250 303.751,37.684 303.933 C 37.858 304.007,38.000 304.309,38.000 304.605 C 38.000 304.901,38.225 305.386,38.500 305.682 C 39.254 306.495,40.800 308.734,40.800 309.012 C 40.800 309.147,41.025 309.483,41.300 309.758 C 41.575 310.034,42.250 310.846,42.800 311.564 C 43.350 312.282,44.025 313.111,44.300 313.406 C 44.575 313.701,44.800 314.127,44.800 314.352 C 44.800 314.576,45.025 314.904,45.300 315.080 C 45.575 315.256,46.425 316.210,47.189 317.200 C 49.257 319.880,49.318 319.955,50.400 321.135 C 50.950 321.736,52.030 323.029,52.800 324.008 C 54.336 325.962,69.564 341.309,70.512 341.859 C 71.059 342.175,73.162 343.947,76.730 347.098 C 77.538 347.812,78.344 348.397,78.519 348.398 C 78.695 348.399,79.255 348.850,79.765 349.400 C 80.275 349.950,80.868 350.400,81.084 350.400 C 81.300 350.400,81.802 350.760,82.200 351.200 C 82.598 351.640,83.123 352.000,83.367 352.000 C 83.611 352.000,84.148 352.450,84.561 353.000 C 84.974 353.550,85.557 354.000,85.856 354.000 C 86.155 354.000,86.400 354.168,86.400 354.373 C 86.400 354.578,86.791 354.870,87.269 355.022 C 87.747 355.174,88.332 355.458,88.569 355.654 C 88.806 355.849,89.720 356.545,90.600 357.200 C 91.480 357.855,92.394 358.551,92.631 358.746 C 92.868 358.942,93.453 359.226,93.931 359.378 C 94.409 359.530,94.800 359.822,94.800 360.027 C 94.800 360.232,95.057 360.400,95.371 360.400 C 95.686 360.400,96.189 360.646,96.490 360.947 C 96.791 361.248,97.478 361.634,98.017 361.805 C 98.556 361.976,99.178 362.352,99.398 362.641 C 99.795 363.159,102.501 364.725,106.000 366.462 C 106.990 366.953,107.892 367.486,108.004 367.646 C 108.116 367.806,108.701 368.060,109.304 368.212 C 109.907 368.363,110.400 368.633,110.400 368.812 C 110.400 368.990,110.940 369.255,111.600 369.400 C 112.260 369.545,112.800 369.815,112.800 370.000 C 112.800 370.185,113.340 370.455,114.000 370.600 C 114.660 370.745,115.200 371.015,115.200 371.200 C 115.200 371.385,115.785 371.663,116.500 371.818 C 117.215 371.974,117.890 372.222,118.000 372.371 C 118.326 372.812,121.068 374.000,121.760 374.000 C 122.112 374.000,122.400 374.172,122.400 374.382 C 122.400 374.592,123.030 374.882,123.800 375.026 C 124.570 375.171,125.200 375.433,125.200 375.609 C 125.200 375.786,125.920 376.051,126.800 376.200 C 127.680 376.349,128.400 376.634,128.400 376.835 C 128.400 377.036,128.850 377.200,129.400 377.200 C 129.950 377.200,130.400 377.360,130.400 377.555 C 130.400 377.751,131.022 378.028,131.783 378.170 C 132.544 378.313,133.669 378.692,134.283 379.012 C 134.897 379.333,135.805 379.596,136.300 379.598 C 136.795 379.599,137.200 379.763,137.200 379.962 C 137.200 380.162,138.100 380.449,139.200 380.600 C 140.299 380.751,141.290 381.021,141.400 381.200 C 141.510 381.379,142.501 381.649,143.600 381.800 C 144.700 381.951,145.600 382.238,145.600 382.438 C 145.600 382.637,146.140 382.800,146.800 382.800 C 147.460 382.800,148.000 382.962,148.000 383.161 C 148.000 383.359,149.080 383.647,150.400 383.800 C 151.720 383.953,152.800 384.223,152.800 384.399 C 152.800 384.575,154.060 384.845,155.600 385.000 C 157.140 385.155,158.400 385.427,158.400 385.605 C 158.400 385.783,159.930 386.056,161.800 386.211 C 163.670 386.367,165.200 386.653,165.200 386.847 C 165.200 387.041,166.022 387.200,167.026 387.200 C 168.031 387.200,169.177 387.374,169.573 387.586 C 169.970 387.798,172.523 388.095,175.247 388.245 C 177.989 388.397,180.323 388.709,180.476 388.944 C 180.860 389.537,213.720 389.523,214.464 388.930 C 214.759 388.696,217.250 388.378,220.000 388.225 C 222.750 388.072,225.171 387.779,225.380 387.573 C 225.589 387.368,226.624 387.200,227.680 387.200 C 228.736 387.200,229.600 387.041,229.600 386.847 C 229.600 386.653,231.130 386.367,233.000 386.211 C 234.870 386.056,236.400 385.783,236.400 385.605 C 236.400 385.427,237.660 385.155,239.200 385.000 C 240.740 384.845,242.000 384.580,242.000 384.411 C 242.000 384.242,243.075 383.982,244.388 383.833 C 245.701 383.685,246.882 383.391,247.011 383.182 C 247.141 382.972,247.777 382.800,248.424 382.800 C 249.071 382.800,249.600 382.637,249.600 382.438 C 249.600 382.238,250.500 381.951,251.600 381.800 C 252.700 381.649,253.600 381.385,253.600 381.214 C 253.600 381.043,254.500 380.784,255.600 380.638 C 256.700 380.492,257.600 380.219,257.600 380.032 C 257.600 379.844,258.406 379.570,259.391 379.422 C 260.376 379.275,261.286 378.984,261.414 378.777 C 261.542 378.570,261.952 378.399,262.324 378.398 C 262.696 378.396,263.516 378.126,264.146 377.798 C 264.776 377.469,265.541 377.200,265.846 377.200 C 266.151 377.200,266.400 377.043,266.400 376.851 C 266.400 376.659,267.120 376.387,268.000 376.246 C 268.880 376.106,269.600 375.815,269.600 375.600 C 269.600 375.385,270.320 375.094,271.200 374.954 C 272.080 374.813,272.800 374.555,272.800 374.381 C 272.800 374.206,273.338 373.945,273.995 373.801 C 274.653 373.657,275.294 373.372,275.419 373.169 C 275.545 372.966,275.997 372.800,276.424 372.800 C 276.851 372.800,277.200 372.634,277.200 372.432 C 277.200 372.229,277.740 371.945,278.400 371.800 C 279.060 371.655,279.600 371.385,279.600 371.200 C 279.600 371.015,280.140 370.745,280.800 370.600 C 281.460 370.455,282.000 370.191,282.000 370.013 C 282.000 369.835,282.617 369.573,283.371 369.432 C 284.125 369.290,284.800 369.045,284.871 368.887 C 284.942 368.729,285.720 368.242,286.600 367.804 C 287.480 367.366,288.290 366.916,288.400 366.804 C 288.510 366.692,289.500 366.150,290.600 365.600 C 291.700 365.050,292.690 364.510,292.800 364.400 C 292.910 364.290,293.675 363.857,294.500 363.437 C 295.325 363.017,296.000 362.522,296.000 362.337 C 296.000 362.152,296.229 362.000,296.509 362.000 C 296.789 362.000,297.975 361.370,299.144 360.600 C 300.313 359.830,301.434 359.200,301.635 359.200 C 301.836 359.200,302.000 359.061,302.000 358.891 C 302.000 358.721,302.630 358.243,303.400 357.828 C 304.170 357.413,304.800 356.922,304.800 356.737 C 304.800 356.552,305.076 356.400,305.413 356.400 C 305.749 356.400,306.122 356.146,306.241 355.836 C 306.361 355.526,306.895 355.163,307.429 355.028 C 307.963 354.894,308.400 354.608,308.400 354.392 C 308.400 354.177,308.657 354.000,308.971 354.000 C 309.285 354.000,309.877 353.574,310.286 353.054 C 310.695 352.534,311.429 351.981,311.915 351.827 C 312.402 351.672,312.800 351.390,312.800 351.200 C 312.800 351.010,313.115 350.750,313.500 350.623 C 313.885 350.496,314.764 349.899,315.454 349.296 C 317.560 347.455,318.548 346.637,319.800 345.699 C 320.460 345.204,321.783 344.125,322.741 343.300 C 325.478 340.942,341.600 324.953,341.600 324.596 C 341.600 324.420,342.292 323.618,343.138 322.813 C 343.984 322.008,344.839 321.067,345.038 320.722 C 345.428 320.046,347.527 317.442,349.296 315.440 C 349.899 314.758,350.496 313.885,350.623 313.500 C 350.750 313.115,351.010 312.800,351.200 312.800 C 351.390 312.800,351.672 312.402,351.827 311.915 C 351.981 311.429,352.534 310.695,353.054 310.286 C 353.574 309.877,354.000 309.285,354.000 308.971 C 354.000 308.657,354.177 308.400,354.392 308.400 C 354.608 308.400,354.894 307.963,355.028 307.429 C 355.163 306.895,355.526 306.361,355.836 306.241 C 356.146 306.122,356.400 305.749,356.400 305.413 C 356.400 305.076,356.552 304.800,356.737 304.800 C 356.922 304.800,357.413 304.170,357.828 303.400 C 358.243 302.630,358.721 302.000,358.891 302.000 C 359.061 302.000,359.200 301.836,359.200 301.635 C 359.200 301.434,359.830 300.313,360.600 299.144 C 361.370 297.975,362.000 296.789,362.000 296.509 C 362.000 296.229,362.152 296.000,362.337 296.000 C 362.522 296.000,363.017 295.325,363.437 294.500 C 363.857 293.675,364.290 292.910,364.400 292.800 C 364.510 292.690,365.050 291.700,365.600 290.600 C 366.150 289.500,366.692 288.510,366.804 288.400 C 366.916 288.290,367.366 287.480,367.804 286.600 C 368.242 285.720,368.729 284.942,368.887 284.871 C 369.045 284.800,369.290 284.125,369.432 283.371 C 369.573 282.617,369.835 282.000,370.013 282.000 C 370.191 282.000,370.455 281.460,370.600 280.800 C 370.745 280.140,371.015 279.600,371.200 279.600 C 371.385 279.600,371.655 279.060,371.800 278.400 C 371.945 277.740,372.229 277.200,372.432 277.200 C 372.634 277.200,372.800 276.750,372.800 276.200 C 372.800 275.650,372.966 275.200,373.168 275.200 C 373.371 275.200,373.655 274.660,373.800 274.000 C 373.945 273.340,374.206 272.800,374.381 272.800 C 374.555 272.800,374.813 272.080,374.954 271.200 C 375.094 270.320,375.372 269.600,375.570 269.600 C 375.768 269.600,376.051 268.880,376.200 268.000 C 376.349 267.120,376.634 266.400,376.835 266.400 C 377.036 266.400,377.200 266.076,377.200 265.680 C 377.200 265.284,377.351 264.789,377.536 264.580 C 377.981 264.078,379.600 259.129,379.600 258.272 C 379.600 257.902,379.774 257.600,379.986 257.600 C 380.199 257.600,380.492 256.700,380.638 255.600 C 380.784 254.500,381.043 253.600,381.214 253.600 C 381.385 253.600,381.649 252.700,381.800 251.600 C 381.951 250.501,382.238 249.500,382.437 249.377 C 382.637 249.254,382.800 248.724,382.800 248.200 C 382.800 247.676,382.972 247.141,383.182 247.011 C 383.391 246.882,383.685 245.701,383.833 244.388 C 383.982 243.075,384.242 242.000,384.411 242.000 C 384.580 242.000,384.845 240.740,385.000 239.200 C 385.155 237.660,385.427 236.400,385.605 236.400 C 385.783 236.400,386.056 234.870,386.211 233.000 C 386.367 231.130,386.653 229.600,386.847 229.600 C 387.041 229.600,387.200 228.778,387.200 227.774 C 387.200 226.769,387.371 225.628,387.580 225.238 C 387.789 224.847,388.083 222.384,388.233 219.764 C 388.383 217.144,388.700 214.756,388.937 214.458 C 389.537 213.703,389.537 181.097,388.937 180.342 C 388.700 180.044,388.383 177.656,388.233 175.036 C 388.083 172.416,387.789 169.953,387.580 169.562 C 387.371 169.172,387.200 168.031,387.200 167.026 C 387.200 166.022,387.041 165.200,386.847 165.200 C 386.653 165.200,386.367 163.670,386.211 161.800 C 386.056 159.930,385.783 158.400,385.605 158.400 C 385.427 158.400,385.155 157.140,385.000 155.600 C 384.845 154.060,384.575 152.800,384.399 152.800 C 384.223 152.800,383.953 151.720,383.800 150.400 C 383.647 149.080,383.359 148.000,383.161 148.000 C 382.962 148.000,382.800 147.471,382.800 146.824 C 382.800 146.177,382.625 145.539,382.412 145.407 C 382.198 145.275,381.905 144.275,381.760 143.184 C 381.615 142.093,381.357 141.200,381.186 141.200 C 381.015 141.200,380.751 140.300,380.600 139.200 C 380.449 138.100,380.182 137.200,380.008 137.200 C 379.834 137.200,379.569 136.390,379.421 135.400 C 379.272 134.410,379.005 133.600,378.827 133.600 C 378.648 133.600,378.387 132.880,378.246 132.000 C 378.106 131.120,377.813 130.400,377.595 130.400 C 377.378 130.400,377.200 129.950,377.200 129.400 C 377.200 128.850,377.036 128.400,376.835 128.400 C 376.634 128.400,376.349 127.680,376.200 126.800 C 376.051 125.920,375.786 125.200,375.609 125.200 C 375.433 125.200,375.171 124.570,375.026 123.800 C 374.882 123.030,374.592 122.400,374.382 122.400 C 374.172 122.400,374.000 122.112,374.000 121.760 C 374.000 121.068,372.812 118.326,372.371 118.000 C 372.222 117.890,371.974 117.215,371.818 116.500 C 371.663 115.785,371.385 115.200,371.200 115.200 C 371.015 115.200,370.745 114.660,370.600 114.000 C 370.455 113.340,370.185 112.800,370.000 112.800 C 369.815 112.800,369.545 112.260,369.400 111.600 C 369.255 110.940,368.990 110.400,368.812 110.400 C 368.633 110.400,368.363 109.907,368.212 109.304 C 368.060 108.701,367.806 108.116,367.646 108.004 C 367.486 107.892,366.953 106.990,366.462 106.000 C 364.725 102.501,363.159 99.795,362.641 99.398 C 362.352 99.178,361.976 98.556,361.805 98.017 C 361.634 97.478,361.248 96.791,360.947 96.490 C 360.646 96.189,360.400 95.686,360.400 95.371 C 360.400 95.057,360.232 94.800,360.027 94.800 C 359.822 94.800,359.528 94.395,359.373 93.900 C 359.219 93.405,358.981 92.910,358.846 92.800 C 358.711 92.690,357.970 91.655,357.200 90.501 C 356.430 89.346,355.685 88.401,355.543 88.401 C 355.402 88.400,355.174 87.950,355.036 87.400 C 354.898 86.850,354.608 86.400,354.392 86.400 C 354.177 86.400,354.000 86.139,354.000 85.820 C 354.000 85.501,353.775 85.096,353.500 84.920 C 352.891 84.530,350.400 81.356,350.400 80.969 C 350.400 80.817,349.950 80.275,349.400 79.765 C 348.850 79.255,348.400 78.680,348.400 78.486 C 348.400 78.292,347.865 77.608,347.211 76.967 C 346.557 76.325,346.017 75.651,346.011 75.469 C 346.005 75.287,345.505 74.643,344.900 74.038 C 344.295 73.433,343.350 72.343,342.800 71.616 C 341.316 69.654,325.655 53.973,323.800 52.592 C 322.920 51.936,321.755 50.905,321.211 50.300 C 320.667 49.695,320.070 49.200,319.884 49.200 C 319.699 49.200,318.884 48.570,318.073 47.801 C 317.263 47.031,316.285 46.299,315.900 46.174 C 315.515 46.049,315.200 45.793,315.200 45.606 C 315.200 45.418,314.525 44.849,313.700 44.340 C 312.285 43.468,310.951 42.435,309.775 41.300 C 309.490 41.025,309.147 40.800,309.012 40.800 C 308.734 40.800,306.495 39.254,305.682 38.500 C 305.386 38.225,304.901 38.000,304.605 38.000 C 304.309 38.000,304.007 37.858,303.933 37.684 C 303.751 37.250,300.051 34.800,299.580 34.800 C 299.371 34.800,299.200 34.623,299.200 34.408 C 299.200 34.192,298.750 33.902,298.200 33.764 C 297.650 33.626,297.200 33.374,297.200 33.203 C 297.200 33.033,296.885 32.788,296.500 32.658 C 295.820 32.430,294.404 31.604,294.000 31.200 C 293.890 31.090,292.900 30.550,291.800 30.000 C 290.700 29.450,289.708 28.879,289.596 28.732 C 289.484 28.584,288.899 28.340,288.296 28.188 C 287.693 28.037,287.200 27.753,287.200 27.557 C 287.200 27.360,286.930 27.200,286.600 27.200 C 286.270 27.200,286.000 27.034,286.000 26.832 C 286.000 26.629,285.460 26.345,284.800 26.200 C 284.140 26.055,283.600 25.791,283.600 25.613 C 283.600 25.435,282.970 25.171,282.200 25.026 C 281.430 24.882,280.800 24.611,280.800 24.425 C 280.800 24.239,280.307 23.963,279.704 23.812 C 279.101 23.660,278.516 23.416,278.404 23.268 C 278.000 22.738,275.519 21.600,274.768 21.600 C 274.345 21.600,274.000 21.420,274.000 21.200 C 274.000 20.980,273.775 20.799,273.500 20.798 C 273.225 20.796,272.517 20.543,271.927 20.235 C 271.337 19.927,270.302 19.554,269.627 19.406 C 268.952 19.258,268.400 18.971,268.400 18.768 C 268.400 18.566,267.995 18.399,267.500 18.398 C 267.005 18.397,265.707 17.943,264.615 17.389 C 263.523 16.835,261.948 16.273,261.115 16.140 C 260.282 16.007,259.600 15.761,259.600 15.594 C 259.600 15.427,258.790 15.169,257.800 15.021 C 256.810 14.872,256.000 14.602,256.000 14.421 C 256.000 14.239,255.164 13.965,254.141 13.812 C 253.119 13.659,251.994 13.385,251.641 13.204 C 250.524 12.629,246.746 11.600,245.754 11.600 C 245.229 11.600,244.800 11.441,244.800 11.247 C 244.800 11.052,243.630 10.768,242.200 10.615 C 240.770 10.462,239.600 10.192,239.600 10.015 C 239.600 9.839,238.251 9.568,236.603 9.413 C 234.954 9.259,233.512 8.981,233.397 8.796 C 233.283 8.611,231.572 8.333,229.595 8.178 C 227.618 8.023,226.000 7.740,226.000 7.548 C 226.000 7.357,225.088 7.200,223.974 7.200 C 222.859 7.200,221.619 7.024,221.218 6.810 C 220.816 6.595,217.221 6.296,213.229 6.146 C 209.236 5.997,205.876 5.722,205.761 5.537 C 205.489 5.096,189.200 5.097,189.200 5.537 M213.982 56.396 C 216.302 56.614,220.630 56.981,223.600 57.211 C 243.957 58.793,260.278 62.782,274.800 69.723 C 276.601 70.584,283.346 74.596,284.314 75.382 C 284.597 75.612,285.047 75.983,285.314 76.206 C 285.581 76.429,286.610 77.238,287.600 78.005 C 294.389 83.260,299.435 90.139,303.732 100.000 C 305.024 102.964,306.347 108.467,307.237 114.580 C 307.780 118.307,307.517 134.201,306.857 137.600 C 306.622 138.810,306.062 141.780,305.614 144.200 C 305.165 146.620,304.519 149.770,304.178 151.200 C 303.837 152.630,303.389 154.610,303.182 155.600 C 302.975 156.590,302.651 157.760,302.463 158.200 C 302.274 158.640,301.625 160.530,301.020 162.400 C 300.414 164.270,299.681 166.340,299.391 167.000 C 299.100 167.660,297.943 170.416,296.820 173.125 C 294.540 178.618,288.172 191.272,283.797 199.000 C 283.299 199.880,282.358 201.590,281.707 202.800 C 281.055 204.010,279.833 206.260,278.991 207.800 C 276.752 211.895,269.515 226.272,268.521 228.600 C 266.662 232.951,265.215 236.703,264.587 238.800 C 264.225 240.010,263.781 241.360,263.601 241.800 C 261.920 245.906,260.927 261.998,262.254 263.639 C 262.503 263.947,262.842 264.829,263.007 265.598 C 264.534 272.724,274.338 283.289,284.073 288.298 C 295.287 294.068,310.294 292.333,329.097 283.095 C 330.031 282.636,330.898 282.365,331.025 282.492 C 331.254 282.720,329.877 285.701,329.148 286.556 C 328.940 286.800,327.937 288.170,326.920 289.600 C 311.373 311.447,289.780 322.806,267.600 320.805 C 262.750 320.367,257.672 319.573,257.000 319.146 C 256.780 319.007,255.790 318.761,254.800 318.601 C 253.810 318.441,252.820 318.174,252.600 318.008 C 252.380 317.843,251.750 317.606,251.200 317.482 C 234.714 313.770,218.573 298.884,210.776 280.200 C 207.450 272.228,206.199 260.095,207.993 253.200 C 208.422 251.550,208.884 249.750,209.020 249.200 C 209.156 248.650,209.419 247.840,209.605 247.400 C 209.791 246.960,210.344 245.250,210.834 243.600 C 211.323 241.950,211.866 240.330,212.041 240.000 C 212.215 239.670,212.753 238.230,213.236 236.800 C 214.616 232.722,215.031 231.635,215.326 231.341 C 215.477 231.190,215.601 230.782,215.602 230.433 C 215.604 230.085,215.874 229.284,216.202 228.654 C 216.531 228.024,216.800 227.331,216.800 227.115 C 216.800 226.898,217.046 226.154,217.346 225.460 C 217.646 224.767,218.210 223.390,218.600 222.400 C 218.990 221.410,219.554 220.033,219.854 219.340 C 220.154 218.646,220.400 217.879,220.400 217.634 C 220.400 217.389,220.580 216.877,220.801 216.495 C 221.021 216.113,222.284 212.920,223.608 209.400 C 224.932 205.880,226.173 202.640,226.366 202.200 C 226.559 201.760,227.286 199.780,227.981 197.800 C 228.675 195.820,229.414 193.887,229.622 193.505 C 229.830 193.123,230.001 192.583,230.002 192.305 C 230.004 192.027,230.257 191.317,230.565 190.727 C 230.873 190.137,231.254 189.063,231.413 188.340 C 231.572 187.617,231.858 186.750,232.050 186.413 C 232.442 185.721,236.241 174.178,237.583 169.600 C 238.067 167.950,238.794 165.520,239.199 164.200 C 239.604 162.880,240.064 161.080,240.220 160.200 C 240.377 159.320,240.616 158.420,240.753 158.200 C 240.889 157.980,241.209 156.810,241.464 155.600 C 241.719 154.390,242.223 152.140,242.584 150.600 C 243.398 147.126,243.854 144.659,244.392 140.800 C 244.623 139.150,245.019 136.630,245.274 135.200 C 245.907 131.644,245.898 116.811,245.260 114.000 C 244.986 112.790,244.480 110.540,244.136 109.000 C 242.733 102.721,239.946 97.541,235.487 92.923 C 233.183 90.536,227.843 86.400,227.066 86.400 C 226.950 86.400,225.689 85.860,224.263 85.200 C 222.837 84.540,221.415 84.000,221.102 84.000 C 220.789 84.000,220.398 83.865,220.234 83.700 C 217.631 81.098,193.206 79.836,182.600 81.757 C 169.500 84.129,159.504 90.225,154.971 98.606 C 154.734 99.043,154.249 99.940,153.892 100.600 C 152.698 102.810,151.759 105.381,150.388 110.200 C 147.567 120.112,149.030 137.995,154.396 159.200 C 155.961 165.385,162.102 185.034,163.584 188.600 C 163.767 189.040,164.492 191.020,165.195 193.000 C 165.897 194.980,166.726 197.167,167.036 197.860 C 167.346 198.554,167.600 199.298,167.600 199.515 C 167.600 199.731,167.869 200.424,168.198 201.054 C 168.526 201.684,168.796 202.479,168.798 202.820 C 168.799 203.161,168.950 203.611,169.134 203.820 C 169.318 204.029,169.785 205.100,170.172 206.200 C 170.559 207.300,171.128 208.767,171.438 209.460 C 171.747 210.154,172.000 210.921,172.000 211.166 C 172.000 211.411,172.180 211.923,172.401 212.305 C 172.621 212.687,173.881 215.880,175.200 219.400 C 176.519 222.920,177.779 226.113,177.999 226.495 C 178.220 226.877,178.400 227.389,178.400 227.634 C 178.400 227.879,178.647 228.646,178.950 229.340 C 179.252 230.033,180.082 232.220,180.794 234.200 C 181.506 236.180,182.235 238.160,182.414 238.600 C 182.845 239.659,184.895 246.027,185.697 248.800 C 186.047 250.010,186.574 251.810,186.867 252.800 C 187.599 255.271,187.592 268.153,186.857 271.400 C 186.301 273.855,185.341 277.171,184.772 278.600 C 180.068 290.424,173.597 299.610,165.251 306.314 C 164.233 307.131,163.310 307.899,163.200 308.020 C 163.090 308.140,161.740 309.058,160.200 310.059 C 153.367 314.500,142.989 318.409,133.400 320.154 C 124.161 321.836,110.452 320.848,103.800 318.022 C 103.360 317.836,102.010 317.281,100.800 316.791 C 94.129 314.088,88.217 310.425,82.433 305.411 C 79.903 303.218,74.214 297.404,72.456 295.213 C 71.655 294.216,70.902 293.310,70.781 293.200 C 69.006 291.576,63.457 282.935,63.982 282.611 C 64.177 282.491,65.870 283.114,67.744 283.996 C 69.618 284.878,71.270 285.600,71.415 285.600 C 71.560 285.600,72.246 285.845,72.940 286.144 C 73.633 286.443,74.740 286.913,75.400 287.188 C 85.811 291.531,99.472 292.843,106.769 290.200 C 109.252 289.300,115.305 286.044,116.000 285.233 C 116.110 285.105,117.370 284.115,118.800 283.034 C 131.615 273.345,136.261 259.775,132.024 244.400 C 130.470 238.760,129.146 234.895,127.434 231.000 C 127.144 230.340,126.481 228.810,125.961 227.600 C 124.398 223.967,114.942 205.455,114.008 204.200 C 113.844 203.980,112.894 202.270,111.897 200.400 C 110.900 198.530,109.428 195.830,108.626 194.400 C 106.820 191.184,98.397 174.056,97.413 171.600 C 97.016 170.610,96.469 169.260,96.197 168.600 C 95.161 166.083,93.630 161.706,92.978 159.400 C 92.605 158.080,92.149 156.640,91.964 156.200 C 91.779 155.760,91.451 154.500,91.235 153.400 C 91.020 152.300,90.567 150.140,90.229 148.600 C 84.928 124.428,87.209 101.995,96.167 90.200 C 104.570 79.136,113.885 71.819,125.000 67.551 C 125.440 67.382,126.645 66.874,127.678 66.422 C 128.711 65.970,129.800 65.600,130.098 65.600 C 130.396 65.600,130.811 65.457,131.020 65.282 C 131.229 65.107,132.480 64.636,133.800 64.235 C 135.120 63.833,136.740 63.327,137.400 63.108 C 138.060 62.890,139.230 62.561,140.000 62.378 C 140.770 62.194,142.570 61.753,144.000 61.398 C 145.430 61.042,147.590 60.583,148.800 60.377 C 150.010 60.170,151.720 59.833,152.600 59.626 C 154.175 59.257,159.517 58.443,165.800 57.616 C 167.560 57.385,172.230 57.012,176.177 56.787 C 180.124 56.563,183.439 56.294,183.544 56.190 C 183.906 55.827,209.788 56.002,213.982 56.396 " stroke="none" fill="#d41434" fill-rule="evenodd"></path><path id="path2" d="M190.500 56.299 C 194.405 56.365,200.795 56.365,204.700 56.299 C 208.605 56.234,205.410 56.180,197.600 56.180 C 189.790 56.180,186.595 56.234,190.500 56.299 M180.500 56.676 C 180.885 56.776,181.515 56.776,181.900 56.676 C 182.285 56.575,181.970 56.493,181.200 56.493 C 180.430 56.493,180.115 56.575,180.500 56.676 M212.900 56.676 C 213.285 56.776,213.915 56.776,214.300 56.676 C 214.685 56.575,214.370 56.493,213.600 56.493 C 212.830 56.493,212.515 56.575,212.900 56.676 M172.500 57.076 C 172.885 57.176,173.515 57.176,173.900 57.076 C 174.285 56.975,173.970 56.893,173.200 56.893 C 172.430 56.893,172.115 56.975,172.500 57.076 M220.900 57.076 C 221.285 57.176,221.915 57.176,222.300 57.076 C 222.685 56.975,222.370 56.893,221.600 56.893 C 220.830 56.893,220.515 56.975,220.900 57.076 M168.505 57.487 C 169.114 57.579,170.014 57.577,170.505 57.482 C 170.997 57.387,170.500 57.311,169.400 57.314 C 168.300 57.317,167.897 57.395,168.505 57.487 M224.500 57.487 C 225.105 57.578,226.095 57.578,226.700 57.487 C 227.305 57.395,226.810 57.320,225.600 57.320 C 224.390 57.320,223.895 57.395,224.500 57.487 M161.300 58.276 C 161.685 58.376,162.315 58.376,162.700 58.276 C 163.085 58.175,162.770 58.093,162.000 58.093 C 161.230 58.093,160.915 58.175,161.300 58.276 M240.033 59.347 C 240.125 59.428,240.920 59.604,241.800 59.738 C 242.915 59.907,243.158 59.871,242.600 59.619 C 241.832 59.271,239.690 59.044,240.033 59.347 M146.400 60.818 C 145.962 61.115,146.124 61.152,147.000 60.956 C 148.471 60.627,148.790 60.398,147.767 60.406 C 147.345 60.409,146.730 60.595,146.400 60.818 M251.633 61.744 C 251.725 61.823,252.340 62.008,253.000 62.156 C 253.876 62.352,254.038 62.315,253.600 62.018 C 253.060 61.653,251.232 61.398,251.633 61.744 M104.975 80.100 L 103.800 81.400 105.100 80.225 C 106.312 79.130,106.584 78.800,106.275 78.800 C 106.206 78.800,105.621 79.385,104.975 80.100 M191.712 80.695 C 192.764 80.777,194.384 80.776,195.312 80.692 C 196.240 80.608,195.380 80.541,193.400 80.542 C 191.420 80.543,190.660 80.612,191.712 80.695 M200.112 80.695 C 201.164 80.777,202.784 80.776,203.712 80.692 C 204.640 80.608,203.780 80.541,201.800 80.542 C 199.820 80.543,199.060 80.612,200.112 80.695 M183.300 81.476 C 183.685 81.576,184.315 81.576,184.700 81.476 C 185.085 81.375,184.770 81.293,184.000 81.293 C 183.230 81.293,182.915 81.375,183.300 81.476 M178.000 82.400 C 177.176 82.664,177.141 82.726,177.800 82.754 C 178.240 82.773,178.870 82.613,179.200 82.400 C 179.901 81.947,179.414 81.947,178.000 82.400 M100.975 84.100 L 99.800 85.400 101.100 84.225 C 102.312 83.130,102.584 82.800,102.275 82.800 C 102.206 82.800,101.621 83.385,100.975 84.100 M235.200 92.600 C 236.617 94.030,237.867 95.200,237.977 95.200 C 238.087 95.200,237.017 94.030,235.600 92.600 C 234.183 91.170,232.933 90.000,232.823 90.000 C 232.713 90.000,233.783 91.170,235.200 92.600 M159.200 92.600 C 158.228 93.590,157.523 94.400,157.633 94.400 C 157.743 94.400,158.628 93.590,159.600 92.600 C 160.572 91.610,161.277 90.800,161.167 90.800 C 161.057 90.800,160.172 91.610,159.200 92.600 M305.656 107.200 C 305.656 107.530,305.811 108.160,306.000 108.600 C 306.217 109.104,306.344 109.178,306.344 108.800 C 306.344 108.470,306.189 107.840,306.000 107.400 C 305.783 106.896,305.656 106.822,305.656 107.200 M88.200 110.800 C 88.046 111.710,88.004 112.538,88.107 112.640 C 88.210 112.743,88.413 112.077,88.560 111.160 C 88.707 110.243,88.748 109.415,88.653 109.320 C 88.558 109.224,88.354 109.890,88.200 110.800 M244.828 112.433 C 244.844 112.965,245.019 113.760,245.219 114.200 C 245.471 114.758,245.507 114.515,245.338 113.400 C 245.055 111.543,244.787 111.036,244.828 112.433 M306.901 113.800 C 306.905 114.680,306.987 114.993,307.083 114.495 C 307.179 113.998,307.175 113.278,307.075 112.895 C 306.975 112.513,306.896 112.920,306.901 113.800 M149.301 116.200 C 149.305 117.080,149.387 117.393,149.483 116.895 C 149.579 116.398,149.575 115.678,149.475 115.295 C 149.375 114.913,149.296 115.320,149.301 116.200 M307.301 117.000 C 307.305 117.880,307.387 118.193,307.483 117.695 C 307.579 117.198,307.575 116.478,307.475 116.095 C 307.375 115.713,307.296 116.120,307.301 117.000 M87.364 123.800 C 87.363 127.540,87.423 129.124,87.497 127.320 C 87.571 125.515,87.572 122.455,87.498 120.520 C 87.425 118.584,87.364 120.060,87.364 123.800 M245.701 119.000 C 245.705 119.880,245.787 120.193,245.883 119.695 C 245.979 119.198,245.975 118.478,245.875 118.095 C 245.775 117.713,245.696 118.120,245.701 119.000 M148.901 119.400 C 148.905 120.280,148.987 120.593,149.083 120.095 C 149.179 119.598,149.175 118.878,149.075 118.495 C 148.975 118.113,148.896 118.520,148.901 119.400 M148.901 128.600 C 148.905 129.480,148.987 129.793,149.083 129.295 C 149.179 128.798,149.175 128.078,149.075 127.695 C 148.975 127.313,148.896 127.720,148.901 128.600 M245.709 129.200 C 245.709 130.190,245.787 130.595,245.882 130.100 C 245.978 129.605,245.978 128.795,245.882 128.300 C 245.787 127.805,245.709 128.210,245.709 129.200 M307.301 131.000 C 307.305 131.880,307.387 132.193,307.483 131.695 C 307.579 131.198,307.575 130.478,307.475 130.095 C 307.375 129.713,307.296 130.120,307.301 131.000 M149.314 132.200 C 149.317 133.300,149.395 133.703,149.487 133.095 C 149.579 132.486,149.577 131.586,149.482 131.095 C 149.387 130.603,149.311 131.100,149.314 132.200 M306.909 134.800 C 306.909 135.790,306.987 136.195,307.082 135.700 C 307.178 135.205,307.178 134.395,307.082 133.900 C 306.987 133.405,306.909 133.810,306.909 134.800 M245.069 135.556 C 244.921 136.295,244.820 137.282,244.844 137.750 C 244.868 138.218,245.047 137.790,245.242 136.800 C 245.437 135.810,245.538 134.823,245.467 134.606 C 245.396 134.390,245.217 134.817,245.069 135.556 M89.268 144.200 C 89.262 144.640,89.411 145.360,89.600 145.800 C 90.038 146.819,90.038 145.768,89.600 144.400 C 89.343 143.596,89.277 143.557,89.268 144.200 M304.650 147.650 C 304.317 149.317,304.640 149.640,305.000 148.000 C 305.152 147.309,305.193 146.659,305.091 146.558 C 304.989 146.456,304.791 146.947,304.650 147.650 M90.406 149.833 C 90.409 150.255,90.595 150.870,90.818 151.200 C 91.115 151.638,91.152 151.476,90.956 150.600 C 90.627 149.129,90.398 148.810,90.406 149.833 M241.849 153.415 C 241.712 153.773,241.615 154.366,241.634 154.733 C 241.653 155.100,241.827 154.869,242.021 154.220 C 242.398 152.958,242.265 152.333,241.849 153.415 M302.800 155.703 C 302.800 155.759,302.623 156.422,302.407 157.176 C 302.191 157.929,302.168 158.378,302.355 158.173 C 302.764 157.726,303.303 155.600,303.008 155.600 C 302.893 155.600,302.800 155.646,302.800 155.703 M166.867 198.420 C 167.101 199.092,167.367 199.567,167.457 199.476 C 167.656 199.278,166.901 197.200,166.631 197.200 C 166.527 197.200,166.633 197.749,166.867 198.420 M215.979 229.055 C 215.758 229.636,215.652 230.185,215.743 230.276 C 215.833 230.367,216.099 229.892,216.333 229.220 C 216.853 227.728,216.539 227.582,215.979 229.055 M211.579 241.055 C 211.358 241.636,211.252 242.185,211.343 242.276 C 211.433 242.367,211.699 241.892,211.933 241.220 C 212.453 239.728,212.139 239.582,211.579 241.055 M131.606 243.033 C 131.609 243.455,131.795 244.070,132.018 244.400 C 132.315 244.838,132.352 244.676,132.156 243.800 C 131.827 242.329,131.598 242.010,131.606 243.033 M132.662 247.400 C 132.796 248.280,132.972 249.075,133.053 249.167 C 133.356 249.510,133.129 247.368,132.781 246.600 C 132.529 246.042,132.493 246.285,132.662 247.400 M208.229 251.829 C 208.081 252.415,208.038 252.972,208.132 253.066 C 208.227 253.160,208.424 252.758,208.571 252.171 C 208.719 251.585,208.762 251.028,208.668 250.934 C 208.573 250.840,208.376 251.242,208.229 251.829 M261.351 255.600 C 261.351 258.130,261.416 259.165,261.496 257.900 C 261.575 256.635,261.575 254.565,261.496 253.300 C 261.416 252.035,261.351 253.070,261.351 255.600 M207.324 257.800 C 207.326 259.120,207.401 259.612,207.490 258.893 C 207.579 258.174,207.577 257.094,207.486 256.493 C 207.395 255.892,207.322 256.480,207.324 257.800 M132.650 262.850 C 132.317 264.517,132.640 264.840,133.000 263.200 C 133.152 262.509,133.193 261.859,133.091 261.758 C 132.989 261.656,132.791 262.147,132.650 262.850 M207.324 265.000 C 207.326 266.320,207.401 266.812,207.490 266.093 C 207.579 265.374,207.577 264.294,207.486 263.693 C 207.395 263.092,207.322 263.680,207.324 265.000 M208.080 271.000 C 208.080 271.440,208.224 272.250,208.400 272.800 C 208.654 273.592,208.720 273.633,208.720 273.000 C 208.720 272.560,208.576 271.750,208.400 271.200 C 208.146 270.408,208.080 270.367,208.080 271.000 M185.829 274.229 C 185.681 274.815,185.638 275.372,185.732 275.466 C 185.827 275.560,186.024 275.158,186.171 274.571 C 186.319 273.985,186.362 273.428,186.268 273.334 C 186.173 273.240,185.976 273.642,185.829 274.229 M270.200 278.000 C 271.059 278.880,271.852 279.600,271.962 279.600 C 272.072 279.600,271.459 278.880,270.600 278.000 C 269.741 277.120,268.948 276.400,268.838 276.400 C 268.728 276.400,269.341 277.120,270.200 278.000 M118.477 283.225 C 117.090 284.311,116.083 285.200,116.240 285.200 C 116.581 285.200,120.732 282.033,121.036 281.542 C 121.381 280.983,121.120 281.155,118.477 283.225 M63.817 282.772 C 63.691 282.977,63.770 283.258,63.993 283.396 C 64.217 283.534,64.400 283.462,64.400 283.236 C 64.400 283.010,64.715 282.926,65.100 283.050 C 65.691 283.240,65.706 283.208,65.200 282.844 C 64.458 282.310,64.114 282.292,63.817 282.772 M329.376 283.022 C 328.632 283.618,328.638 283.626,329.508 283.204 C 330.008 282.961,330.593 282.872,330.808 283.005 C 331.024 283.138,331.200 283.057,331.200 282.824 C 331.200 282.205,330.270 282.306,329.376 283.022 M85.633 290.544 C 85.725 290.623,86.340 290.808,87.000 290.956 C 87.876 291.152,88.038 291.115,87.600 290.818 C 87.060 290.453,85.232 290.198,85.633 290.544 M307.200 290.818 C 306.762 291.115,306.924 291.152,307.800 290.956 C 309.271 290.627,309.590 290.398,308.567 290.406 C 308.145 290.409,307.530 290.595,307.200 290.818 M94.300 291.896 C 95.675 291.974,97.925 291.974,99.300 291.896 C 100.675 291.818,99.550 291.754,96.800 291.754 C 94.050 291.754,92.925 291.818,94.300 291.896 M295.500 291.896 C 296.875 291.974,299.125 291.974,300.500 291.896 C 301.875 291.818,300.750 291.754,298.000 291.754 C 295.250 291.754,294.125 291.818,295.500 291.896 M318.981 298.900 L 317.400 300.600 319.100 299.019 C 320.681 297.548,320.984 297.200,320.681 297.200 C 320.616 297.200,319.851 297.965,318.981 298.900 M222.400 299.310 C 222.400 299.371,223.795 300.766,225.500 302.410 L 228.600 305.400 225.610 302.300 C 222.833 299.421,222.400 299.017,222.400 299.310 M314.181 303.700 L 312.600 305.400 314.300 303.819 C 315.881 302.348,316.184 302.000,315.881 302.000 C 315.816 302.000,315.051 302.765,314.181 303.700 M113.400 320.390 C 114.164 320.728,116.714 320.957,116.367 320.656 C 116.275 320.576,115.390 320.404,114.400 320.273 C 113.198 320.114,112.866 320.153,113.400 320.390 M130.000 320.400 C 128.643 320.686,128.637 320.695,129.800 320.707 C 130.460 320.715,131.450 320.576,132.000 320.400 C 133.312 319.980,131.996 319.980,130.000 320.400 M121.300 321.091 C 122.125 321.178,123.475 321.178,124.300 321.091 C 125.125 321.005,124.450 320.934,122.800 320.934 C 121.150 320.934,120.475 321.005,121.300 321.091 M270.691 321.089 C 271.401 321.177,272.661 321.179,273.491 321.092 C 274.321 321.005,273.740 320.933,272.200 320.931 C 270.660 320.929,269.981 321.000,270.691 321.089 " stroke="none" fill="#e4687c" fill-rule="evenodd"></path><path id="path3" d="M184.707 56.690 C 185.426 56.779,186.506 56.777,187.107 56.686 C 187.708 56.595,187.120 56.522,185.800 56.524 C 184.480 56.526,183.988 56.601,184.707 56.690 M207.900 56.689 C 208.615 56.778,209.785 56.778,210.500 56.689 C 211.215 56.601,210.630 56.528,209.200 56.528 C 207.770 56.528,207.185 56.601,207.900 56.689 M176.700 57.089 C 177.415 57.178,178.585 57.178,179.300 57.089 C 180.015 57.001,179.430 56.928,178.000 56.928 C 176.570 56.928,175.985 57.001,176.700 57.089 M215.900 57.089 C 216.615 57.178,217.785 57.178,218.500 57.089 C 219.215 57.001,218.630 56.928,217.200 56.928 C 215.770 56.928,215.185 57.001,215.900 57.089 M172.705 57.483 C 173.202 57.579,173.922 57.575,174.305 57.475 C 174.687 57.375,174.280 57.296,173.400 57.301 C 172.520 57.305,172.207 57.387,172.705 57.483 M220.900 57.476 C 221.285 57.576,221.915 57.576,222.300 57.476 C 222.685 57.375,222.370 57.293,221.600 57.293 C 220.830 57.293,220.515 57.375,220.900 57.476 M164.500 58.276 C 164.885 58.376,165.515 58.376,165.900 58.276 C 166.285 58.175,165.970 58.093,165.200 58.093 C 164.430 58.093,164.115 58.175,164.500 58.276 M229.105 58.283 C 229.602 58.379,230.322 58.375,230.705 58.275 C 231.087 58.175,230.680 58.096,229.800 58.101 C 228.920 58.105,228.607 58.187,229.105 58.283 M156.600 59.200 C 155.511 59.477,155.493 59.507,156.400 59.525 C 156.950 59.535,157.760 59.389,158.200 59.200 C 159.186 58.776,158.266 58.776,156.600 59.200 M243.800 60.400 C 244.240 60.589,244.960 60.738,245.400 60.732 C 246.043 60.723,246.004 60.657,245.200 60.400 C 243.832 59.962,242.781 59.962,243.800 60.400 M124.200 68.214 C 123.195 68.698,123.163 68.753,124.000 68.551 C 124.550 68.419,125.171 68.150,125.380 67.955 C 125.898 67.471,125.614 67.533,124.200 68.214 M105.775 79.700 L 104.600 81.000 105.900 79.825 C 107.112 78.730,107.384 78.400,107.075 78.400 C 107.006 78.400,106.421 78.985,105.775 79.700 M191.300 80.287 C 191.905 80.378,192.895 80.378,193.500 80.287 C 194.105 80.195,193.610 80.120,192.400 80.120 C 191.190 80.120,190.695 80.195,191.300 80.287 M201.300 80.287 C 201.905 80.378,202.895 80.378,203.500 80.287 C 204.105 80.195,203.610 80.120,202.400 80.120 C 201.190 80.120,200.695 80.195,201.300 80.287 M186.700 80.682 C 187.195 80.778,188.005 80.778,188.500 80.682 C 188.995 80.587,188.590 80.509,187.600 80.509 C 186.610 80.509,186.205 80.587,186.700 80.682 M206.700 80.682 C 207.195 80.778,208.005 80.778,208.500 80.682 C 208.995 80.587,208.590 80.509,207.600 80.509 C 206.610 80.509,206.205 80.587,206.700 80.682 M291.600 82.200 C 292.346 82.970,293.047 83.600,293.157 83.600 C 293.267 83.600,292.746 82.970,292.000 82.200 C 291.254 81.430,290.553 80.800,290.443 80.800 C 290.333 80.800,290.854 81.430,291.600 82.200 M159.385 92.100 L 157.400 94.200 159.500 92.215 C 160.655 91.123,161.600 90.178,161.600 90.115 C 161.600 89.817,161.229 90.149,159.385 92.100 M89.050 108.050 C 88.717 109.717,89.040 110.040,89.400 108.400 C 89.552 107.709,89.593 107.059,89.491 106.958 C 89.389 106.856,89.191 107.347,89.050 108.050 M88.101 114.600 C 88.105 115.480,88.187 115.793,88.283 115.295 C 88.379 114.798,88.375 114.078,88.275 113.695 C 88.175 113.313,88.096 113.720,88.101 114.600 M306.901 117.000 C 306.905 117.880,306.987 118.193,307.083 117.695 C 307.179 117.198,307.175 116.478,307.075 116.095 C 306.975 115.713,306.896 116.120,306.901 117.000 M87.693 118.000 C 87.693 118.770,87.775 119.085,87.876 118.700 C 87.976 118.315,87.976 117.685,87.876 117.300 C 87.775 116.915,87.693 117.230,87.693 118.000 M246.120 119.200 C 246.120 120.410,246.195 120.905,246.287 120.300 C 246.378 119.695,246.378 118.705,246.287 118.100 C 246.195 117.495,246.120 117.990,246.120 119.200 M307.353 123.800 C 307.353 126.440,307.418 127.468,307.497 126.084 C 307.575 124.701,307.574 122.541,307.495 121.284 C 307.416 120.028,307.352 121.160,307.353 123.800 M148.524 123.800 C 148.526 125.120,148.601 125.612,148.690 124.893 C 148.779 124.174,148.777 123.094,148.686 122.493 C 148.595 121.892,148.522 122.480,148.524 123.800 M246.128 128.800 C 246.128 130.230,246.201 130.815,246.289 130.100 C 246.378 129.385,246.378 128.215,246.289 127.500 C 246.201 126.785,246.128 127.370,246.128 128.800 M87.693 130.000 C 87.693 130.770,87.775 131.085,87.876 130.700 C 87.976 130.315,87.976 129.685,87.876 129.300 C 87.775 128.915,87.693 129.230,87.693 130.000 M306.901 131.000 C 306.905 131.880,306.987 132.193,307.083 131.695 C 307.179 131.198,307.175 130.478,307.075 130.095 C 306.975 129.713,306.896 130.120,306.901 131.000 M148.893 132.000 C 148.893 132.770,148.975 133.085,149.076 132.700 C 149.176 132.315,149.176 131.685,149.076 131.300 C 148.975 130.915,148.893 131.230,148.893 132.000 M245.693 132.800 C 245.693 133.570,245.775 133.885,245.876 133.500 C 245.976 133.115,245.976 132.485,245.876 132.100 C 245.775 131.715,245.693 132.030,245.693 132.800 M88.109 133.600 C 88.109 134.590,88.187 134.995,88.282 134.500 C 88.378 134.005,88.378 133.195,88.282 132.700 C 88.187 132.205,88.109 132.610,88.109 133.600 M149.240 136.033 C 149.262 136.785,149.430 137.850,149.613 138.400 C 149.829 139.046,149.866 138.620,149.719 137.200 C 149.459 134.683,149.181 134.007,149.240 136.033 M150.428 144.033 C 150.444 144.565,150.619 145.360,150.819 145.800 C 151.071 146.358,151.107 146.115,150.938 145.000 C 150.655 143.143,150.387 142.636,150.428 144.033 M305.000 144.400 C 304.848 145.091,304.807 145.741,304.909 145.842 C 305.011 145.944,305.209 145.453,305.350 144.750 C 305.683 143.083,305.360 142.760,305.000 144.400 M243.654 146.667 C 243.625 147.144,243.496 147.864,243.370 148.267 C 243.152 148.961,243.164 148.962,243.596 148.288 C 243.847 147.897,243.975 147.177,243.881 146.688 C 243.709 145.801,243.709 145.801,243.654 146.667 M90.056 146.800 C 90.056 147.130,90.211 147.760,90.400 148.200 C 90.617 148.704,90.744 148.778,90.744 148.400 C 90.744 148.070,90.589 147.440,90.400 147.000 C 90.183 146.496,90.056 146.422,90.056 146.800 M152.456 153.600 C 152.456 153.930,152.611 154.560,152.800 155.000 C 153.017 155.504,153.144 155.578,153.144 155.200 C 153.144 154.870,152.989 154.240,152.800 153.800 C 152.583 153.296,152.456 153.222,152.456 153.600 M232.444 186.044 C 232.198 186.751,232.066 187.400,232.152 187.485 C 232.238 187.571,232.509 187.062,232.756 186.356 C 233.002 185.649,233.134 185.000,233.048 184.915 C 232.962 184.829,232.691 185.338,232.444 186.044 M170.218 208.100 C 170.368 208.595,170.655 209.176,170.856 209.391 C 171.057 209.606,171.019 209.201,170.772 208.491 C 170.265 207.038,169.797 206.708,170.218 208.100 M177.267 226.420 C 177.501 227.092,177.767 227.567,177.857 227.476 C 178.056 227.278,177.301 225.200,177.031 225.200 C 176.927 225.200,177.033 225.749,177.267 226.420 M131.256 240.400 C 131.256 240.730,131.411 241.360,131.600 241.800 C 131.817 242.304,131.944 242.378,131.944 242.000 C 131.944 241.670,131.789 241.040,131.600 240.600 C 131.383 240.096,131.256 240.022,131.256 240.400 M133.755 255.400 C 133.756 258.260,133.820 259.378,133.897 257.883 C 133.974 256.389,133.974 254.049,133.896 252.683 C 133.818 251.318,133.755 252.540,133.755 255.400 M260.909 255.600 C 260.909 256.590,260.987 256.995,261.082 256.500 C 261.178 256.005,261.178 255.195,261.082 254.700 C 260.987 254.205,260.909 254.610,260.909 255.600 M187.350 261.800 C 187.351 264.220,187.416 265.158,187.496 263.885 C 187.576 262.612,187.575 260.632,187.494 259.485 C 187.414 258.338,187.349 259.380,187.350 261.800 M186.046 272.067 C 186.021 272.434,185.896 273.064,185.770 273.467 C 185.552 274.162,185.563 274.163,185.997 273.487 C 186.248 273.096,186.373 272.466,186.273 272.087 C 186.111 271.468,186.088 271.466,186.046 272.067 M126.555 275.881 C 125.707 276.916,125.222 277.634,125.477 277.476 C 126.021 277.140,128.555 274.000,128.282 274.000 C 128.180 274.000,127.403 274.847,126.555 275.881 M271.200 279.400 C 272.617 280.830,273.867 282.000,273.977 282.000 C 274.087 282.000,273.017 280.830,271.600 279.400 C 270.183 277.970,268.933 276.800,268.823 276.800 C 268.713 276.800,269.783 277.970,271.200 279.400 M275.082 282.841 C 275.625 283.515,279.200 286.146,279.200 285.873 C 279.200 285.776,278.165 284.919,276.900 283.970 C 275.635 283.021,274.817 282.513,275.082 282.841 M95.511 292.293 C 96.451 292.378,97.891 292.377,98.711 292.291 C 99.530 292.205,98.760 292.136,97.000 292.137 C 95.240 292.139,94.570 292.209,95.511 292.293 M296.500 292.291 C 297.325 292.378,298.675 292.378,299.500 292.291 C 300.325 292.205,299.650 292.134,298.000 292.134 C 296.350 292.134,295.675 292.205,296.500 292.291 M319.381 298.100 L 317.800 299.800 319.500 298.219 C 321.081 296.748,321.384 296.400,321.081 296.400 C 321.016 296.400,320.251 297.165,319.381 298.100 M222.400 298.910 C 222.400 298.971,223.795 300.366,225.500 302.010 L 228.600 305.000 225.610 301.900 C 222.833 299.021,222.400 298.617,222.400 298.910 M78.400 301.400 C 79.595 302.610,80.663 303.600,80.773 303.600 C 80.883 303.600,79.995 302.610,78.800 301.400 C 77.605 300.190,76.537 299.200,76.427 299.200 C 76.317 299.200,77.205 300.190,78.400 301.400 M313.775 303.700 L 312.600 305.000 313.900 303.825 C 314.615 303.179,315.200 302.594,315.200 302.525 C 315.200 302.216,314.870 302.488,313.775 303.700 M165.978 305.100 L 164.600 306.600 166.100 305.222 C 167.496 303.938,167.784 303.600,167.478 303.600 C 167.412 303.600,166.737 304.275,165.978 305.100 M260.000 319.600 C 261.368 320.038,262.419 320.038,261.400 319.600 C 260.960 319.411,260.240 319.262,259.800 319.268 C 259.157 319.277,259.196 319.343,260.000 319.600 M283.000 319.600 C 281.981 320.038,283.032 320.038,284.400 319.600 C 285.204 319.343,285.243 319.277,284.600 319.268 C 284.160 319.262,283.440 319.411,283.000 319.600 M119.682 320.696 C 121.158 320.773,123.678 320.773,125.282 320.697 C 126.887 320.621,125.680 320.558,122.600 320.558 C 119.520 320.557,118.207 320.619,119.682 320.696 M269.500 320.697 C 271.095 320.773,273.705 320.773,275.300 320.697 C 276.895 320.621,275.590 320.559,272.400 320.559 C 269.210 320.559,267.905 320.621,269.500 320.697 " stroke="none" fill="#ec8f9c" fill-rule="evenodd"></path><path id="path4" d="M195.105 80.283 C 195.602 80.379,196.322 80.375,196.705 80.275 C 197.087 80.175,196.680 80.096,195.800 80.101 C 194.920 80.105,194.607 80.187,195.105 80.283 M198.500 80.276 C 198.885 80.376,199.515 80.376,199.900 80.276 C 200.285 80.175,199.970 80.093,199.200 80.093 C 198.430 80.093,198.115 80.175,198.500 80.276 M246.131 123.800 C 246.133 125.340,246.205 125.921,246.292 125.091 C 246.379 124.261,246.377 123.001,246.289 122.291 C 246.200 121.581,246.129 122.260,246.131 123.800 M207.301 261.400 C 207.305 262.280,207.387 262.593,207.483 262.095 C 207.579 261.598,207.575 260.878,207.475 260.495 C 207.375 260.113,207.296 260.520,207.301 261.400 " stroke="none" fill="#ec8494" fill-rule="evenodd"></path></g></svg>